PathFileType	4	(X/Y/Z)	G:\マイドライブ\biomec\experimentalData\240725\CJ3.trc
DataRate	CameraRate	NumFrames	NumMarkers	Units	OrigDataRate	OrigDataStartFrame	OrigNumFrames
200.00	200.00	      5	52	mm	200.00	1459	      1667
Frame#	Time	handR			wrRI			wrRO			elbRI			elbRO			shRF			shRU			shRB			handL			wrLI			wrLO			elbLI			elbLO			shLF			shLU			shLB			toeR			baRI			baRO			heelR			anRI			anRO			knRI			knRO			troR			toeL			baLI			baLO			heelL			anLI			anLO			knLI			knLO			troL			head			earR			earL			clav			c7			ribR			ribL			xiph			ASISR			ASISL			PSISR			PSISL			t8			t11			L1			L3			LS			COX			
		X1	Y1	Z1	X2	Y2	Z2	X3	Y3	Z3	X4	Y4	Z4	X5	Y5	Z5	X6	Y6	Z6	X7	Y7	Z7	X8	Y8	Z8	X9	Y9	Z9	X10	Y10	Z10	X11	Y11	Z11	X12	Y12	Z12	X13	Y13	Z13	X14	Y14	Z14	X15	Y15	Z15	X16	Y16	Z16	X17	Y17	Z17	X18	Y18	Z18	X19	Y19	Z19	X20	Y20	Z20	X21	Y21	Z21	X22	Y22	Z22	X23	Y23	Z23	X24	Y24	Z24	X25	Y25	Z25	X26	Y26	Z26	X27	Y27	Z27	X28	Y28	Z28	X29	Y29	Z29	X30	Y30	Z30	X31	Y31	Z31	X32	Y32	Z32	X33	Y33	Z33	X34	Y34	Z34	X35	Y35	Z35	X36	Y36	Z36	X37	Y37	Z37	X38	Y38	Z38	X39	Y39	Z39	X40	Y40	Z40	X41	Y41	Z41	X42	Y42	Z42	X43	Y43	Z43	X44	Y44	Z44	X45	Y45	Z45	X46	Y46	Z46	X47	Y47	Z47	X48	Y48	Z48	X49	Y49	Z49	X50	Y50	Z50	X51	Y51	Z51	X52	Y52	Z52	

1459	7.290	354.51120	1460.28442	1056.53162	292.69754	1496.39966	1032.49487	338.62405	1542.43713	1067.55371	210.14789	1638.88831	1218.14343	161.40108	1576.01208	1228.70471	367.26456	1429.45569	1412.89355	342.28818	1480.47253	1450.94910	347.03021	1538.30127	1422.94385	633.00232	1417.72424	1044.40442	716.01123	1452.72278	1025.27991	673.35571	1481.99048	1080.23499	838.00354	1597.37183	1173.32153	889.20813	1529.51123	1172.70117	688.68237	1406.65320	1383.10229	728.66675	1453.97888	1414.21948	715.30023	1521.52979	1378.20691	265.45743	1417.24670	51.65716	326.53995	1489.84436	38.68127	209.46716	1534.12256	46.17080	330.88516	1696.86560	53.79186	352.72064	1597.27429	123.09638	265.09891	1635.74854	120.62626	390.35379	1520.95703	474.27451	286.18091	1531.60901	487.68277	316.77164	1512.25842	889.80847	609.95819	1406.44836	64.87952	548.20496	1466.24243	59.36354	653.90601	1512.09778	52.85471	559.13593	1684.64539	38.64293	541.15991	1594.07922	134.70279	625.37170	1627.69983	105.13483	547.39331	1571.47986	483.26160	650.94293	1557.51978	483.79446	658.22937	1479.95288	863.61591	575.73944	1470.11633	1700.72925	468.22623	1392.54236	1565.09045	622.56903	1378.20959	1542.41443	527.33923	1393.06396	1384.89343	547.73798	1506.68396	1472.38281	395.92822	1447.91016	1099.60327	611.09784	1425.82996	1079.08069	511.09045	1378.83118	1226.53821	382.91513	1435.06140	971.21393	602.98975	1419.46863	967.51941	451.22110	1600.84094	1007.33264	570.82513	1585.94043	1005.38959	537.09338	1596.50745	1270.84229	523.71106	1594.24658	1142.61951	519.60791	1585.46167	1082.97266	514.33051	1589.56775	1037.21472	513.76227	1603.83911	999.22876	509.93762	1636.99756	898.12091	
1460	7.295	352.89584	1462.23572	1055.96326	290.94904	1498.65454	1032.16931	337.14667	1544.93762	1067.17102	209.35660	1641.39246	1217.70361	160.04230	1578.91077	1228.33716	365.61792	1431.44421	1412.66748	340.55670	1482.78931	1450.72913	345.54776	1540.48865	1422.47290	630.89758	1418.07910	1044.00525	713.89337	1452.54053	1024.89941	671.32001	1481.58179	1080.22461	835.58893	1598.12805	1172.01526	887.45367	1529.20923	1172.12830	686.97070	1407.44897	1382.93262	727.06445	1454.65479	1413.76807	713.67682	1522.42664	1377.76111	265.53366	1417.55273	52.07373	326.63434	1490.01099	38.64650	209.51077	1534.33740	46.02975	331.21988	1697.11609	52.00662	352.85077	1598.12451	122.19124	265.12482	1636.40271	119.29932	389.61115	1525.00525	473.96494	285.76224	1535.68872	487.20816	315.41504	1514.61768	889.13593	609.78241	1406.65076	65.34973	548.04547	1466.45764	59.67619	653.76520	1512.22314	52.96275	559.21722	1684.91760	38.48639	541.29004	1594.78613	134.72495	625.56909	1628.04224	104.97498	547.05090	1574.15588	483.02222	650.58759	1559.41797	483.95389	656.81830	1480.24023	863.43396	573.91052	1471.29919	1700.60718	465.74777	1394.14905	1564.97644	620.63751	1379.55457	1541.94934	525.70575	1394.44324	1384.70068	546.31732	1508.21350	1472.01392	394.22763	1449.59375	1098.96021	609.04449	1426.00513	1078.69080	508.76407	1379.82678	1226.46265	380.98575	1436.79309	970.47461	600.87988	1419.96106	967.16357	450.30441	1602.16699	1006.83795	570.23077	1586.19067	1005.32245	535.81427	1597.72070	1270.18958	522.81360	1595.13293	1142.06897	518.44287	1586.38953	1082.55566	513.34729	1590.25269	1036.83447	512.85944	1605.06775	998.84998	509.55344	1637.92004	897.74841	
1461	7.300	350.71411	1463.98376	1055.41992	289.38739	1500.70752	1031.73254	335.98676	1546.57532	1066.74561	208.52489	1643.80774	1217.25134	159.07066	1581.54224	1227.90356	363.80447	1433.52551	1412.63074	338.96793	1485.05225	1450.41089	344.34662	1542.66455	1422.27942	628.80261	1418.12000	1043.70898	711.97626	1452.57996	1024.39417	669.56604	1482.42615	1079.34619	833.87701	1598.01929	1171.32507	885.82617	1529.05981	1171.56763	685.07733	1408.18298	1382.65552	725.31531	1455.48315	1413.36475	711.98102	1523.06287	1377.15613	265.60797	1417.81982	52.45615	326.74838	1490.23279	38.57420	209.49892	1534.73975	45.99806	331.38882	1697.52844	50.39608	353.05341	1598.85510	121.26083	265.36151	1637.26587	118.10309	389.38477	1528.47266	473.95685	285.56540	1539.71814	486.88129	313.80612	1517.10938	888.61652	609.67157	1406.81213	65.75146	547.93652	1466.66248	59.91226	653.67847	1512.30078	53.04796	559.23224	1685.38550	38.54589	541.35895	1595.31714	134.75677	625.66559	1628.36865	104.87655	546.53864	1576.08411	482.78491	650.21735	1560.94019	483.91531	655.72791	1480.64575	863.19531	572.34729	1472.69092	1700.32764	463.61368	1396.01990	1564.66785	618.74115	1380.69495	1541.62317	523.51239	1395.58081	1384.67664	544.78998	1509.51965	1471.49854	392.65274	1451.23682	1098.42712	607.10486	1426.50110	1078.25452	506.66693	1380.87537	1226.34229	379.35117	1438.81311	969.75348	599.10980	1420.66797	966.65320	449.42505	1603.62061	1006.51727	568.96692	1587.35791	1005.04089	534.79926	1598.84741	1269.79480	521.75006	1596.20288	1141.59094	517.40356	1587.27612	1082.13306	512.18298	1591.45410	1036.55225	511.99747	1605.93811	998.47308	509.17441	1638.87183	897.33417	
1462	7.305	349.74396	1466.09338	1055.07690	287.95422	1502.51794	1031.31018	334.36890	1547.92383	1066.34473	207.55063	1646.21106	1216.79028	158.16505	1583.95703	1227.57751	362.01666	1435.48779	1412.53992	337.30447	1487.31152	1450.07068	342.95807	1544.76038	1421.82715	626.58789	1418.56860	1043.29126	710.12982	1452.37024	1024.22119	667.78656	1481.64404	1079.49414	832.23462	1597.81165	1170.57422	884.29761	1528.57642	1170.98962	683.17456	1408.68396	1382.52649	723.59467	1455.94128	1413.13452	710.55804	1523.56531	1376.71582	265.66064	1418.03259	52.77906	326.85477	1490.34094	38.50048	209.66069	1534.75793	45.90067	331.49033	1697.76196	49.02656	352.97421	1599.41455	119.93470	265.62503	1638.30798	117.12755	389.03934	1532.27429	473.57480	285.39246	1543.50171	486.22433	313.03510	1519.20154	887.74377	609.56860	1406.93909	66.08536	547.82544	1466.82605	60.08264	653.57135	1512.40503	53.13592	559.10596	1685.87646	38.56073	541.33600	1595.67212	134.74120	625.72717	1628.59436	104.79459	545.97095	1577.92993	482.54489	650.00256	1562.15002	483.85400	654.31421	1481.09277	863.02893	570.63141	1473.81335	1700.07300	462.62128	1397.83862	1564.38721	616.74146	1381.86938	1541.35291	521.59296	1396.78113	1384.56189	543.36304	1510.83655	1471.10840	390.73318	1452.83557	1097.85779	604.95984	1426.79114	1077.88184	504.37933	1381.90869	1226.15088	377.28799	1440.56042	969.19580	596.88275	1421.24609	966.42529	448.48077	1604.92639	1006.05029	568.27106	1587.84961	1004.87799	533.64966	1599.98071	1269.15222	520.76837	1597.12903	1141.14722	516.26086	1588.50464	1081.70337	511.12561	1592.49182	1036.27246	511.10126	1607.04163	998.24292	508.53473	1639.82043	896.96185	
1463	7.310	348.10385	1467.73389	1054.59180	285.73227	1504.49963	1031.08850	332.97614	1549.47058	1065.90088	206.64000	1648.68787	1216.46887	156.81952	1586.56824	1227.33044	360.02768	1437.64355	1412.43457	335.73303	1489.50806	1449.96582	341.55127	1546.96167	1421.48474	624.73779	1418.41064	1043.22217	708.85266	1453.26245	1022.75421	666.08026	1481.81421	1079.05981	831.06042	1597.57178	1169.83655	882.46094	1528.30981	1170.33594	681.49835	1409.32727	1382.22241	721.75226	1456.74194	1412.71716	708.87384	1524.18005	1376.14282	265.73230	1418.23230	53.07172	326.96487	1490.47925	38.42597	209.71594	1534.92444	45.90073	331.90189	1697.98999	47.42953	353.22525	1600.05029	119.18039	265.84695	1638.82739	116.17216	388.69495	1536.60901	472.96640	284.99020	1547.35522	485.56204	311.58408	1521.60974	887.24329	609.48724	1407.02576	66.31629	547.78589	1466.90186	60.14964	653.51874	1512.47925	53.16074	558.91461	1686.21716	38.47073	541.32660	1595.76013	134.75624	625.80396	1628.65295	104.70453	545.46820	1578.79138	481.89767	649.53235	1563.26721	483.87900	653.63489	1480.91907	863.20117	569.10864	1475.14856	1700.00500	460.80362	1399.54956	1564.11365	614.91132	1383.09692	1541.20654	519.48688	1398.24426	1384.36414	541.90631	1512.10779	1470.82275	389.23367	1454.51953	1097.43823	602.97687	1427.15833	1077.85388	502.29330	1384.49316	1225.96118	375.19943	1441.69360	968.94293	595.19019	1422.16394	966.03058	447.43652	1606.27124	1005.72748	567.07367	1589.02576	1004.78259	532.50446	1601.18286	1268.80640	519.47150	1598.11084	1140.75378	515.11566	1589.55554	1081.39746	510.04349	1593.58240	1036.10620	510.10632	1608.27161	997.92249	507.83792	1641.03137	896.69794	
